<svg width="46" height="45" viewBox="0 0 46 45" fill="none" xmlns="http://www.w3.org/2000/svg">
<g clip-path="url(#clip0_223_552)">
<circle cx="23" cy="22.5" r="22.5" fill="#FEFCFB"/>
<mask id="mask0_223_552" style="mask-type:alpha" maskUnits="userSpaceOnUse" x="11" y="10" width="25" height="24">
<rect x="11.5" y="10" width="24" height="24" fill="#D9D9D9"/>
</mask>
<g mask="url(#mask0_223_552)">
<path d="M26.6865 22L18.9712 14.2845C18.8237 14.1372 18.751 13.96 18.753 13.753C18.7548 13.5458 18.8295 13.3686 18.977 13.2212C19.1243 13.0737 19.3016 13 19.5087 13C19.7157 13 19.893 13.0737 20.0405 13.2212L27.677 20.8635C27.8385 21.025 27.9564 21.2051 28.0307 21.4038C28.1051 21.6026 28.1422 21.8013 28.1422 22C28.1422 22.1987 28.1051 22.3974 28.0307 22.5963C27.9564 22.7949 27.8385 22.975 27.677 23.1365L20.0345 30.7788C19.8871 30.9263 19.7109 30.999 19.5057 30.997C19.3006 30.9952 19.1243 30.9205 18.977 30.773C18.8295 30.6257 18.7557 30.4484 18.7557 30.2413C18.7557 30.0343 18.8295 29.857 18.977 29.7095L26.6865 22Z" fill="#7F7D7D"/>
</g>
</g>
<defs>
<clipPath id="clip0_223_552">
<rect width="45" height="45" fill="white" transform="translate(0.5)"/>
</clipPath>
</defs>
</svg>
