<svg width="46" height="45" viewBox="0 0 46 45" fill="none" xmlns="http://www.w3.org/2000/svg">
<g clip-path="url(#clip0_223_557)">
<circle cx="23" cy="22.5" r="22.5" fill="#FEFCFB"/>
<mask id="mask0_223_557" style="mask-type:alpha" maskUnits="userSpaceOnUse" x="11" y="10" width="25" height="24">
<rect x="11.5" y="10" width="24" height="24" fill="#D9D9D9"/>
</mask>
<g mask="url(#mask0_223_557)">
<path d="M20.2088 21.9971L27.924 29.7126C28.0715 29.8599 28.1443 30.0371 28.1423 30.2441C28.1405 30.4512 28.0658 30.6285 27.9183 30.7758C27.771 30.9233 27.5937 30.9971 27.3865 30.9971C27.1795 30.9971 27.0023 30.9233 26.8548 30.7758L19.2183 23.1336C19.0568 22.9721 18.9389 22.792 18.8645 22.5933C18.7902 22.3945 18.753 22.1957 18.753 21.9971C18.753 21.7984 18.7902 21.5997 18.8645 21.4008C18.9389 21.2022 19.0568 21.0221 19.2183 20.8606L26.8608 13.2183C27.0081 13.0708 27.1844 12.9981 27.3895 13.0001C27.5947 13.0019 27.771 13.0766 27.9183 13.2241C28.0658 13.3714 28.1395 13.5487 28.1395 13.7558C28.1395 13.9628 28.0658 14.1401 27.9183 14.2876L20.2088 21.9971Z" fill="#7F7D7D"/>
</g>
</g>
<defs>
<clipPath id="clip0_223_557">
<rect width="45" height="45" fill="white" transform="translate(0.5)"/>
</clipPath>
</defs>
</svg>
