<svg width="24" height="25" viewBox="0 0 24 25" fill="none" xmlns="http://www.w3.org/2000/svg">
<mask id="mask0_187_2140" style="mask-type:alpha" maskUnits="userSpaceOnUse" x="0" y="0" width="24" height="25">
<rect y="0.5" width="24" height="24" fill="#D9D9D9"/>
</mask>
<g mask="url(#mask0_187_2140)">
<path d="M20 7.5C19.7167 7.5 19.4792 7.40417 19.2875 7.2125C19.0958 7.02083 19 6.78333 19 6.5V5.5H18C17.7167 5.5 17.4792 5.40417 17.2875 5.2125C17.0958 5.02083 17 4.78333 17 4.5C17 4.21667 17.0958 3.97917 17.2875 3.7875C17.4792 3.59583 17.7167 3.5 18 3.5H19V2.5C19 2.21667 19.0958 1.97917 19.2875 1.7875C19.4792 1.59583 19.7167 1.5 20 1.5C20.2833 1.5 20.5208 1.59583 20.7125 1.7875C20.9042 1.97917 21 2.21667 21 2.5V3.5H22C22.2833 3.5 22.5208 3.59583 22.7125 3.7875C22.9042 3.97917 23 4.21667 23 4.5C23 4.78333 22.9042 5.02083 22.7125 5.2125C22.5208 5.40417 22.2833 5.5 22 5.5H21V6.5C21 6.78333 20.9042 7.02083 20.7125 7.2125C20.5208 7.40417 20.2833 7.5 20 7.5ZM11 18C12.25 18 13.3125 17.5625 14.1875 16.6875C15.0625 15.8125 15.5 14.75 15.5 13.5C15.5 12.25 15.0625 11.1875 14.1875 10.3125C13.3125 9.4375 12.25 9 11 9C9.75 9 8.6875 9.4375 7.8125 10.3125C6.9375 11.1875 6.5 12.25 6.5 13.5C6.5 14.75 6.9375 15.8125 7.8125 16.6875C8.6875 17.5625 9.75 18 11 18ZM11 16C10.3 16 9.70833 15.7583 9.225 15.275C8.74167 14.7917 8.5 14.2 8.5 13.5C8.5 12.8 8.74167 12.2083 9.225 11.725C9.70833 11.2417 10.3 11 11 11C11.7 11 12.2917 11.2417 12.775 11.725C13.2583 12.2083 13.5 12.8 13.5 13.5C13.5 14.2 13.2583 14.7917 12.775 15.275C12.2917 15.7583 11.7 16 11 16ZM3 21.5C2.45 21.5 1.97917 21.3042 1.5875 20.9125C1.19583 20.5208 1 20.05 1 19.5V7.5C1 6.95 1.19583 6.47917 1.5875 6.0875C1.97917 5.69583 2.45 5.5 3 5.5H6.15L7.4 4.15C7.58333 3.95 7.80417 3.79167 8.0625 3.675C8.32083 3.55833 8.59167 3.5 8.875 3.5H14C14.2833 3.5 14.5208 3.59583 14.7125 3.7875C14.9042 3.97917 15 4.21667 15 4.5V6C15 6.41667 15.1458 6.77083 15.4375 7.0625C15.7292 7.35417 16.0833 7.5 16.5 7.5H17V8C17 8.41667 17.1458 8.77083 17.4375 9.0625C17.7292 9.35417 18.0833 9.5 18.5 9.5H20C20.2833 9.5 20.5208 9.59583 20.7125 9.7875C20.9042 9.97917 21 10.2167 21 10.5V19.5C21 20.05 20.8042 20.5208 20.4125 20.9125C20.0208 21.3042 19.55 21.5 19 21.5H3Z" fill="#7F7D7D"/>
</g>
</svg>
