<svg width="10" height="10" viewBox="0 0 10 10" fill="none" xmlns="http://www.w3.org/2000/svg">
<path d="M4.79311 6.60895L2.03744 9.36462C1.86323 9.53883 1.64151 9.62593 1.37228 9.62593C1.10304 9.62593 0.881323 9.53883 0.707114 9.36462C0.532905 9.19041 0.445801 8.96869 0.445801 8.69946C0.445801 8.43023 0.532905 8.20851 0.707114 8.0343L3.46278 5.27863L0.707114 2.54671C0.532905 2.37251 0.445801 2.15079 0.445801 1.88155C0.445801 1.61232 0.532905 1.3906 0.707114 1.21639C0.881323 1.04218 1.10304 0.955078 1.37228 0.955078C1.64151 0.955078 1.86323 1.04218 2.03744 1.21639L4.79311 3.97206L7.52502 1.21639C7.69923 1.04218 7.92095 0.955078 8.19018 0.955078C8.45941 0.955078 8.68113 1.04218 8.85534 1.21639C9.04539 1.40644 9.14041 1.63212 9.14041 1.89343C9.14041 2.15474 9.04539 2.37251 8.85534 2.54671L6.09967 5.27863L8.85534 8.0343C9.02955 8.20851 9.11666 8.43023 9.11666 8.69946C9.11666 8.96869 9.02955 9.19041 8.85534 9.36462C8.6653 9.55467 8.43962 9.64969 8.1783 9.64969C7.91699 9.64969 7.69923 9.55467 7.52502 9.36462L4.79311 6.60895Z" fill="#C8C5C4"/>
</svg>
