<svg width="10" height="10" viewBox="0 0 10 10" fill="none" xmlns="http://www.w3.org/2000/svg">
<path d="M5.4251 6.37481L2.5251 9.27481C2.34176 9.45814 2.10843 9.54981 1.8251 9.54981C1.54176 9.54981 1.30843 9.45814 1.1251 9.27481C0.941764 9.09147 0.850098 8.85814 0.850098 8.57481C0.850098 8.29147 0.941764 8.05814 1.1251 7.87481L4.0251 4.9748L1.1251 2.0998C0.941764 1.91647 0.850098 1.68314 0.850098 1.3998C0.850098 1.11647 0.941764 0.883138 1.1251 0.699805C1.30843 0.516471 1.54176 0.424805 1.8251 0.424805C2.10843 0.424805 2.34176 0.516471 2.5251 0.699805L5.4251 3.5998L8.3001 0.699805C8.48343 0.516471 8.71676 0.424805 9.0001 0.424805C9.28343 0.424805 9.51676 0.516471 9.7001 0.699805C9.9001 0.899805 10.0001 1.1373 10.0001 1.4123C10.0001 1.6873 9.9001 1.91647 9.7001 2.0998L6.8001 4.9748L9.7001 7.87481C9.88343 8.05814 9.9751 8.29147 9.9751 8.57481C9.9751 8.85814 9.88343 9.09147 9.7001 9.27481C9.5001 9.4748 9.2626 9.57481 8.9876 9.57481C8.7126 9.57481 8.48343 9.4748 8.3001 9.27481L5.4251 6.37481Z" fill="#3D3B3A"/>
</svg>
