<svg width="44" height="16" viewBox="0 0 44 16" fill="none" xmlns="http://www.w3.org/2000/svg">
<g clip-path="url(#clip0_648_4356)">
<path d="M23.5669 2.34424H23.613C24.2815 2.34424 24.8255 2.88401 24.8255 3.54729V14.1186H22.3545V3.54729C22.3545 2.88401 22.8985 2.34424 23.5669 2.34424Z" fill="#FEFCFB"/>
<path d="M16.6527 2.34424C17.4179 2.34424 17.9896 3.03496 17.8421 3.78058L15.7952 14.1186H13.3242L15.4633 3.314C15.5739 2.75135 16.0718 2.34424 16.6527 2.34424Z" fill="#FEFCFB"/>
<path d="M20.944 10.8754C20.7688 10.6879 20.6858 10.4683 20.6858 10.2213L20.6766 6.9278C20.6766 6.47951 20.6028 6.06325 20.4553 5.67443C20.3078 5.28561 20.0911 4.94254 19.8099 4.65436C19.5287 4.3616 19.1783 4.13746 18.7726 3.96821C18.3716 3.8081 17.9198 3.72577 17.4173 3.72119H15.6562V6.5344H17.4219C17.6939 6.5527 17.9059 6.63961 18.0627 6.80887C18.2379 6.99641 18.3208 7.21598 18.3255 7.46299L18.3347 10.9303C18.3347 11.3375 18.413 11.7263 18.5744 12.1059C18.7311 12.4856 18.9616 12.8241 19.2613 13.126C19.5609 13.4279 19.9205 13.6704 20.3447 13.8488C20.7688 14.0317 21.2067 14.1186 21.7415 14.1186V11.1545C21.4188 11.1545 21.1284 11.063 20.9532 10.8754H20.944Z" fill="#FEFCFB"/>
<path d="M29.3393 5.24429C29.3393 5.45014 29.3024 5.64683 29.224 5.82523C29.1456 6.00363 29.0396 6.15916 28.9059 6.29181C28.7722 6.41989 28.6155 6.5251 28.4311 6.60287C28.2467 6.68063 28.0531 6.71723 27.8456 6.71723C27.6381 6.71723 27.4445 6.68063 27.2647 6.60287C27.0849 6.5251 26.9328 6.41989 26.8037 6.29181C26.6747 6.16373 26.5686 6.0082 26.4903 5.82523C26.4119 5.64226 26.375 5.45014 26.375 5.24429C26.375 5.03845 26.4119 4.84175 26.4903 4.66335C26.5686 4.48495 26.6747 4.32485 26.8037 4.19219C26.9328 4.05954 27.0896 3.95433 27.2647 3.87657C27.4445 3.7988 27.6335 3.76221 27.8456 3.76221C28.0577 3.76221 28.2513 3.7988 28.4311 3.87657C28.6155 3.95433 28.7722 4.05954 28.9059 4.19219C29.0396 4.32485 29.1456 4.48495 29.224 4.66335C29.3024 4.84175 29.3393 5.03845 29.3393 5.24429ZM29.3393 10.7564C29.3393 10.9622 29.3024 11.1543 29.224 11.3373C29.1456 11.5203 29.0396 11.6712 28.9059 11.8039C28.7722 11.932 28.6155 12.0372 28.4311 12.1149C28.2467 12.1927 28.0531 12.2293 27.8456 12.2293C27.6381 12.2293 27.4445 12.1927 27.2647 12.1149C27.0849 12.0372 26.9328 11.932 26.8037 11.8039C26.6747 11.6758 26.5686 11.5203 26.4903 11.3373C26.4119 11.1543 26.375 10.9622 26.375 10.7564C26.375 10.5505 26.4119 10.3538 26.4903 10.1754C26.5686 9.99245 26.6747 9.83692 26.8037 9.70426C26.9328 9.57161 27.0896 9.4664 27.2647 9.38863C27.4445 9.31087 27.6335 9.27428 27.8456 9.27428C28.0577 9.27428 28.2513 9.31087 28.4311 9.38863C28.6155 9.4664 28.7722 9.57161 28.9059 9.70426C29.0396 9.83692 29.1456 9.99245 29.224 10.1754C29.3024 10.3584 29.3393 10.5505 29.3393 10.7564Z" fill="#FEFCFB"/>
<path d="M5.25656 11.7536C5.09982 11.7536 4.97535 11.7079 4.87854 11.6118C4.78173 11.5158 4.73563 11.3923 4.73563 11.2367V4.39354H7.51547C8.08712 4.39354 8.54812 3.93611 8.54812 3.36889C8.54812 2.80167 8.08712 2.34424 7.51547 2.34424H2.26465V11.7948C2.26465 12.147 2.31997 12.4672 2.43522 12.7508C2.54586 13.0344 2.70721 13.2769 2.91005 13.4782C3.11289 13.6794 3.35723 13.8395 3.64305 13.9493C3.92887 14.0591 4.25157 14.1186 4.60654 14.1186L8.56656 13.8761V11.6027L5.25656 11.7491V11.7536Z" fill="#FEFCFB"/>
<path d="M11.8987 6.82251V3.57016C11.8987 2.89316 11.3455 2.34424 10.6632 2.34424C9.98094 2.34424 9.42773 2.89316 9.42773 3.57016V14.1186H11.8987V8.89011H12.1569C12.7331 8.89011 13.1987 8.4281 13.1987 7.85631C13.1987 7.28452 12.7331 6.82251 12.1569 6.82251H11.8987Z" fill="#FEFCFB"/>
<path d="M35.4975 8.21781V7.64602H33.3492C32.9712 7.64602 32.63 7.58198 32.3258 7.4539C32.0215 7.32582 31.7633 7.14742 31.5467 6.91413C31.33 6.68083 31.1686 6.40637 31.0534 6.09075C30.9381 5.77512 30.8828 5.42289 30.8828 5.04322C30.8828 4.66355 30.9381 4.31591 31.0534 3.9957C31.1686 3.6755 31.33 3.40561 31.5467 3.17232C31.7633 2.93903 32.0215 2.76063 32.3258 2.63255C32.63 2.50447 32.9712 2.44043 33.3492 2.44043H40.5547C40.9327 2.44043 41.2738 2.50447 41.5781 2.63255C41.8823 2.76063 42.1405 2.93903 42.3572 3.17232C42.5739 3.40561 42.7352 3.68007 42.8505 3.9957C42.9657 4.31133 43.021 4.66355 43.021 5.04322C43.021 5.42289 42.9657 5.77054 42.8505 6.09075C42.7352 6.40637 42.5739 6.68083 42.3572 6.91413C42.1405 7.14742 41.8823 7.32582 41.5781 7.4539C41.2738 7.58198 40.9327 7.64602 40.5547 7.64602H38.4064V8.21781H42.8966V10.3723H31.0119V8.21781H35.5021H35.4975ZM33.9162 10.7566V11.3512C33.9162 11.6897 34.0868 11.859 34.4233 11.859H42.8966V14.0135H33.4137C32.5701 14.0135 31.9616 13.8214 31.5789 13.4417C31.1963 13.062 31.0119 12.4491 31.0119 11.6028V10.752H33.9208L33.9162 10.7566ZM33.801 5.0478C33.801 5.2079 33.8563 5.34513 33.9669 5.45491C34.0776 5.5647 34.2113 5.61959 34.3726 5.61959H39.5312C39.6926 5.61959 39.8263 5.5647 39.9369 5.45491C40.0476 5.34513 40.1029 5.2079 40.1029 5.0478C40.1029 4.8877 40.0476 4.75047 39.9369 4.64068C39.8263 4.5309 39.6926 4.47601 39.5312 4.47601H34.3726C34.2113 4.47601 34.0776 4.5309 33.9669 4.64068C33.8563 4.75047 33.801 4.8877 33.801 5.0478Z" fill="#FEFCFB"/>
</g>
<defs>
<clipPath id="clip0_648_4356">
<rect width="43.7197" height="15.7392" fill="white" transform="translate(0 0.0800781)"/>
</clipPath>
</defs>
</svg>
