<svg width="100" height="36" viewBox="0 0 100 36" fill="none" xmlns="http://www.w3.org/2000/svg">
<path d="M52.0411 5H52.1429C53.6189 5 54.8202 6.19192 54.8202 7.65657V31H49.3638V7.65657C49.3638 6.19192 50.565 5 52.0411 5Z" fill="#FF564D"/>
<path d="M36.7712 5C38.4611 5 39.7234 6.52525 39.3976 8.17172L34.8778 31H29.4214L34.1448 7.14141C34.3891 5.89899 35.4886 5 36.7712 5Z" fill="#FF564D"/>
<path d="M46.2488 23.8384C45.862 23.4242 45.6787 22.9394 45.6787 22.3939L45.6584 15.1212C45.6584 14.1313 45.4955 13.2121 45.1697 12.3535C44.844 11.495 44.3655 10.7374 43.7446 10.101C43.1236 9.45455 42.3499 8.9596 41.4541 8.58586C40.5684 8.23232 39.5708 8.05051 38.4612 8.04041H34.5725V14.2525H38.4714C39.072 14.2929 39.5403 14.4849 39.8864 14.8586C40.2732 15.2727 40.4565 15.7576 40.4666 16.303L40.487 23.9596C40.487 24.8586 40.6601 25.7172 41.0164 26.5556C41.3625 27.3939 41.8715 28.1414 42.5331 28.8081C43.1948 29.4747 43.9889 30.0101 44.9254 30.404C45.862 30.8081 46.829 31 48.0099 31V24.4545C47.2973 24.4545 46.656 24.2525 46.2692 23.8384H46.2488Z" fill="#FF564D"/>
<path d="M64.7861 11.404C64.7861 11.8586 64.7047 12.2929 64.5316 12.6868C64.3586 13.0808 64.1244 13.4242 63.8292 13.7171C63.534 14 63.1879 14.2323 62.7807 14.404C62.3735 14.5757 61.9459 14.6565 61.4879 14.6565C61.0298 14.6565 60.6022 14.5757 60.2052 14.404C59.8082 14.2323 59.4722 14 59.1872 13.7171C58.9022 13.4343 58.668 13.0909 58.495 12.6868C58.3219 12.2828 58.2405 11.8586 58.2405 11.404C58.2405 10.9495 58.3219 10.5151 58.495 10.1212C58.668 9.72725 58.9022 9.37371 59.1872 9.08078C59.4722 8.78785 59.8184 8.55553 60.2052 8.38381C60.6022 8.21209 61.0196 8.13129 61.4879 8.13129C61.9561 8.13129 62.3837 8.21209 62.7807 8.38381C63.1879 8.55553 63.534 8.78785 63.8292 9.08078C64.1244 9.37371 64.3586 9.72725 64.5316 10.1212C64.7047 10.5151 64.7861 10.9495 64.7861 11.404ZM64.7861 23.5757C64.7861 24.0303 64.7047 24.4545 64.5316 24.8586C64.3586 25.2626 64.1244 25.5959 63.8292 25.8889C63.534 26.1717 63.1879 26.404 62.7807 26.5757C62.3735 26.7474 61.9459 26.8283 61.4879 26.8283C61.0298 26.8283 60.6022 26.7474 60.2052 26.5757C59.8082 26.404 59.4722 26.1717 59.1872 25.8889C58.9022 25.606 58.668 25.2626 58.495 24.8586C58.3219 24.4545 58.2405 24.0303 58.2405 23.5757C58.2405 23.1212 58.3219 22.6868 58.495 22.2929C58.668 21.8889 58.9022 21.5454 59.1872 21.2525C59.4722 20.9596 59.8184 20.7272 60.2052 20.5555C60.6022 20.3838 61.0196 20.303 61.4879 20.303C61.9561 20.303 62.3837 20.3838 62.7807 20.5555C63.1879 20.7272 63.534 20.9596 63.8292 21.2525C64.1244 21.5454 64.3586 21.8889 64.5316 22.2929C64.7047 22.6969 64.7861 23.1212 64.7861 23.5757Z" fill="#FF564D"/>
<path d="M11.6067 25.7778C11.2606 25.7778 10.9857 25.6768 10.772 25.4646C10.5582 25.2525 10.4564 24.9798 10.4564 24.6364V9.52525H16.5948C17.8571 9.52525 18.8751 8.51515 18.8751 7.26263C18.8751 6.0101 17.8571 5 16.5948 5H5V25.8687C5 26.6465 5.12216 27.3535 5.37665 27.9798C5.62097 28.6061 5.97726 29.1414 6.42518 29.5859C6.87309 30.0303 7.41262 30.3838 8.04377 30.6263C8.67492 30.8687 9.38751 31 10.1714 31L18.9158 30.4646V25.4444L11.6067 25.7677V25.7778Z" fill="#FF564D"/>
<path d="M26.276 14.8889V7.70707C26.276 6.21212 25.0544 5 23.5478 5C22.0412 5 20.8196 6.21212 20.8196 7.70707V31H26.276V19.4545H26.846C28.1185 19.4545 29.1467 18.4343 29.1467 17.1717C29.1467 15.9091 28.1185 14.8889 26.846 14.8889H26.276Z" fill="#FF564D"/>
<path d="M78.3866 17.9697V16.707H73.6427C72.808 16.707 72.0547 16.5656 71.3828 16.2828C70.711 16 70.1409 15.606 69.6624 15.0909C69.184 14.5757 68.8277 13.9697 68.5732 13.2727C68.3187 12.5757 68.1965 11.798 68.1965 10.9596C68.1965 10.1212 68.3187 9.35351 68.5732 8.64644C68.8277 7.93937 69.184 7.34341 69.6624 6.82826C70.1409 6.31311 70.711 5.91917 71.3828 5.63634C72.0547 5.35351 72.808 5.2121 73.6427 5.2121H89.5538C90.3886 5.2121 91.1419 5.35351 91.8138 5.63634C92.4856 5.91917 93.0557 6.31311 93.5342 6.82826C94.0126 7.34341 94.3689 7.94947 94.6234 8.64644C94.8779 9.34341 95.0001 10.1212 95.0001 10.9596C95.0001 11.798 94.8779 12.5656 94.6234 13.2727C94.3689 13.9697 94.0126 14.5757 93.5342 15.0909C93.0557 15.606 92.4856 16 91.8138 16.2828C91.1419 16.5656 90.3886 16.707 89.5538 16.707H84.81V17.9697H94.7252V22.7273H68.4816V17.9697H78.3967H78.3866ZM74.8949 23.5757V24.8889C74.8949 25.6363 75.2715 26.0101 76.0147 26.0101H94.7252V30.7677H73.7853C71.9224 30.7677 70.5786 30.3434 69.7337 29.505C68.8888 28.6666 68.4816 27.3131 68.4816 25.4444V23.5656H74.905L74.8949 23.5757ZM74.6404 10.9697C74.6404 11.3232 74.7625 11.6262 75.0068 11.8687C75.2512 12.1111 75.5464 12.2323 75.9027 12.2323H87.2939C87.6502 12.2323 87.9454 12.1111 88.1897 11.8687C88.4341 11.6262 88.5562 11.3232 88.5562 10.9697C88.5562 10.6161 88.4341 10.3131 88.1897 10.0707C87.9454 9.82826 87.6502 9.70705 87.2939 9.70705H75.9027C75.5464 9.70705 75.2512 9.82826 75.0068 10.0707C74.7625 10.3131 74.6404 10.6161 74.6404 10.9697Z" fill="#FF564D"/>
</svg>
