<svg width="19" height="20" viewBox="0 0 19 20" fill="none" xmlns="http://www.w3.org/2000/svg">
<mask id="mask0_342_17" style="mask-type:alpha" maskUnits="userSpaceOnUse" x="0" y="0" width="19" height="20">
<rect y="0.5" width="19" height="19" fill="#D9D9D9"/>
</mask>
<g mask="url(#mask0_342_17)">
<path d="M9.50008 9.99967C9.9355 9.99967 10.3082 9.84464 10.6183 9.53457C10.9284 9.2245 11.0834 8.85176 11.0834 8.41634C11.0834 7.98092 10.9284 7.60818 10.6183 7.29811C10.3082 6.98804 9.9355 6.83301 9.50008 6.83301C9.06466 6.83301 8.69192 6.98804 8.38185 7.29811C8.07178 7.60818 7.91675 7.98092 7.91675 8.41634C7.91675 8.85176 8.07178 9.2245 8.38185 9.53457C8.69192 9.84464 9.06466 9.99967 9.50008 9.99967ZM9.50008 17.9163C7.37578 16.1087 5.78914 14.4297 4.74019 12.8794C3.69123 11.329 3.16675 9.89412 3.16675 8.57467C3.16675 6.59551 3.80338 5.01877 5.07664 3.84447C6.34991 2.67016 7.82439 2.08301 9.50008 2.08301C11.1758 2.08301 12.6503 2.67016 13.9235 3.84447C15.1968 5.01877 15.8334 6.59551 15.8334 8.57467C15.8334 9.89412 15.3089 11.329 14.26 12.8794C13.211 14.4297 11.6244 16.1087 9.50008 17.9163Z" fill="#605E5D"/>
</g>
</svg>
