<svg width="115" height="31" viewBox="0 0 115 31" fill="none" xmlns="http://www.w3.org/2000/svg">
<path d="M18.1 12.9056C18.0999 10.6581 17.4196 9.5534 16.6095 9.12455C16.5006 9.06705 16.3289 9.0498 16.2122 9.08907C16.1702 9.10321 16.1219 9.12777 16.0648 9.18782C16.0057 9.25003 15.8966 9.39321 15.7994 9.69082C15.4124 10.8764 15.4505 12.6612 15.9838 14.6947C16.24 15.6716 16.5939 16.6404 17.0137 17.543C17.7066 16.1967 18.1 14.5792 18.1 12.9056ZM22.445 12.9056C22.445 15.895 21.5357 19.0013 19.7024 21.3965C20.1452 21.9324 21.7252 23.5359 22.1202 23.9309C22.5152 24.3259 24.4902 26.2774 24.4902 26.2774H18.5652C18.5652 26.2774 16.9009 24.9487 16.4043 24.2665C15.2443 24.904 13.9327 25.3237 12.4867 25.4522C9.46571 25.7207 7.26126 24.1001 5.93368 22.3092C4.65058 20.5782 3.9502 18.4043 3.9502 16.743H8.29519C8.29519 17.3846 8.64158 18.6652 9.42465 19.7217C10.1631 20.7178 11.0443 21.2181 12.1017 21.1242C12.7 21.0711 13.2522 20.9319 13.7612 20.7223C12.9112 19.1993 12.2275 17.497 11.7815 15.7963C11.1424 13.3594 10.9186 10.6416 11.6689 8.34304C12.2302 6.62372 13.3789 5.45808 14.8266 4.97088C16.1789 4.51592 17.5836 4.72448 18.6423 5.28488C21.5682 6.83374 22.4449 10.0241 22.445 12.9056Z" fill="#FF645B"/>
<path d="M65.0396 5.38562H65.1188C66.2672 5.38562 67.2018 6.31297 67.2018 7.45251V25.6144H62.9565V7.45251C62.9565 6.31297 63.8911 5.38562 65.0396 5.38562Z" fill="#FF645B"/>
<path d="M53.1588 5.38562C54.4736 5.38562 55.4557 6.57231 55.2022 7.85331L51.6857 25.6144H47.4404L51.1154 7.0517C51.3055 6.08506 52.1609 5.38562 53.1588 5.38562Z" fill="#FF645B"/>
<path d="M60.5327 20.0424C60.2318 19.7202 60.0892 19.343 60.0892 18.9186L60.0734 13.2602C60.0734 12.49 59.9466 11.7748 59.6932 11.1068C59.4397 10.4388 59.0675 9.84942 58.5844 9.35431C58.1012 8.85134 57.4993 8.46626 56.8023 8.17548C56.1133 7.90042 55.3371 7.75896 54.4738 7.7511H51.4482V12.5843H54.4817C54.949 12.6157 55.3133 12.7651 55.5826 13.0558C55.8836 13.3781 56.0261 13.7553 56.034 14.1797L56.0499 20.1367C56.0499 20.8361 56.1845 21.5041 56.4617 22.1564C56.731 22.8087 57.127 23.3903 57.6419 23.909C58.1567 24.4277 58.7744 24.8442 59.5031 25.1507C60.2318 25.465 60.9842 25.6143 61.9029 25.6143V20.5218C61.3485 20.5218 60.8495 20.3646 60.5486 20.0424H60.5327Z" fill="#FF645B"/>
<path d="M74.9555 10.3682C74.9555 10.7218 74.8921 11.0598 74.7575 11.3663C74.6228 11.6728 74.4407 11.94 74.211 12.1679C73.9813 12.3879 73.712 12.5687 73.3952 12.7023C73.0784 12.8359 72.7458 12.8987 72.3893 12.8987C72.0329 12.8987 71.7003 12.8359 71.3914 12.7023C71.0825 12.5687 70.8211 12.3879 70.5994 12.1679C70.3776 11.9478 70.1954 11.6806 70.0608 11.3663C69.9262 11.0519 69.8628 10.7218 69.8628 10.3682C69.8628 10.0145 69.9262 9.6766 70.0608 9.3701C70.1954 9.0636 70.3776 8.78854 70.5994 8.56063C70.8211 8.33273 71.0904 8.15197 71.3914 8.01837C71.7003 7.88477 72.025 7.8219 72.3893 7.8219C72.7537 7.8219 73.0863 7.88477 73.3952 8.01837C73.712 8.15197 73.9813 8.33273 74.211 8.56063C74.4407 8.78854 74.6228 9.0636 74.7575 9.3701C74.8921 9.6766 74.9555 10.0145 74.9555 10.3682ZM74.9555 19.8381C74.9555 20.1918 74.8921 20.5219 74.7575 20.8362C74.6228 21.1506 74.4407 21.4099 74.211 21.6378C73.9813 21.8579 73.712 22.0386 73.3952 22.1722C73.0784 22.3058 72.7458 22.3687 72.3893 22.3687C72.0329 22.3687 71.7003 22.3058 71.3914 22.1722C71.0825 22.0386 70.8211 21.8579 70.5994 21.6378C70.3776 21.4178 70.1954 21.1506 70.0608 20.8362C69.9262 20.5219 69.8628 20.1918 69.8628 19.8381C69.8628 19.4845 69.9262 19.1466 70.0608 18.8401C70.1954 18.5257 70.3776 18.2585 70.5994 18.0306C70.8211 17.8027 71.0904 17.6219 71.3914 17.4883C71.7003 17.3547 72.025 17.2919 72.3893 17.2919C72.7537 17.2919 73.0863 17.3547 73.3952 17.4883C73.712 17.6219 73.9813 17.8027 74.211 18.0306C74.4407 18.2585 74.6228 18.5257 74.7575 18.8401C74.8921 19.1544 74.9555 19.4845 74.9555 19.8381Z" fill="#FF645B"/>
<path d="M33.5802 21.5513C33.3109 21.5513 33.097 21.4728 32.9307 21.3077C32.7644 21.1427 32.6852 20.9305 32.6852 20.6633V8.9064H37.4611C38.4432 8.9064 39.2352 8.12051 39.2352 7.14601C39.2352 6.17151 38.4432 5.38562 37.4611 5.38562H28.4399V21.6221C28.4399 22.2272 28.535 22.7773 28.733 23.2646C28.9231 23.7518 29.2003 24.1684 29.5488 24.5141C29.8973 24.8599 30.317 25.135 30.8081 25.3236C31.2991 25.5122 31.8536 25.6144 32.4634 25.6144L39.2669 25.1979V21.292L33.5802 21.5435V21.5513Z" fill="#FF645B"/>
<path d="M44.9933 13.0795V7.4918C44.9933 6.32869 44.0429 5.38562 42.8707 5.38562C41.6985 5.38562 40.748 6.32869 40.748 7.4918V25.6144H44.9933V16.6317H45.4368C46.4268 16.6317 47.2268 15.8379 47.2268 14.8556C47.2268 13.8732 46.4268 13.0795 45.4368 13.0795H44.9933Z" fill="#FF645B"/>
<path d="M85.537 15.4764V14.4941H81.8462C81.1967 14.4941 80.6106 14.384 80.0879 14.164C79.5652 13.9439 79.1216 13.6375 78.7494 13.2366C78.3771 12.8358 78.0999 12.3643 77.9019 11.822C77.7039 11.2798 77.6089 10.6747 77.6089 10.0224C77.6089 9.37008 77.7039 8.7728 77.9019 8.22268C78.0999 7.67256 78.3771 7.20888 78.7494 6.80808C79.1216 6.40728 79.5652 6.10078 80.0879 5.88073C80.6106 5.66068 81.1967 5.55066 81.8462 5.55066H94.2255C94.875 5.55066 95.4611 5.66068 95.9838 5.88073C96.5065 6.10078 96.9501 6.40728 97.3223 6.80808C97.6946 7.20888 97.9718 7.68042 98.1698 8.22268C98.3678 8.76494 98.4628 9.37008 98.4628 10.0224C98.4628 10.6747 98.3678 11.2719 98.1698 11.822C97.9718 12.3643 97.6946 12.8358 97.3223 13.2366C96.9501 13.6375 96.5065 13.9439 95.9838 14.164C95.4611 14.384 94.875 14.4941 94.2255 14.4941H90.5347V15.4764H98.249V19.178H77.8307V15.4764H85.5449H85.537ZM82.8204 19.8381V20.8598C82.8204 21.4413 83.1134 21.7321 83.6916 21.7321H98.249V25.4336H81.9571C80.5077 25.4336 79.4622 25.1036 78.8048 24.4513C78.1475 23.799 77.8307 22.7459 77.8307 21.292V19.8303H82.8283L82.8204 19.8381ZM82.6224 10.0302C82.6224 10.3053 82.7174 10.5411 82.9075 10.7297C83.0976 10.9183 83.3273 11.0126 83.6045 11.0126H92.4672C92.7444 11.0126 92.9741 10.9183 93.1642 10.7297C93.3543 10.5411 93.4493 10.3053 93.4493 10.0302C93.4493 9.75516 93.3543 9.5194 93.1642 9.33078C92.9741 9.14217 92.7444 9.04786 92.4672 9.04786H83.6045C83.3273 9.04786 83.0976 9.14217 82.9075 9.33078C82.7174 9.5194 82.6224 9.75516 82.6224 10.0302Z" fill="#FF645B"/>
</svg>
