<svg width="50" height="50" viewBox="0 0 50 50" fill="none" xmlns="http://www.w3.org/2000/svg">
<mask id="mask0_1090_4990" style="mask-type:alpha" maskUnits="userSpaceOnUse" x="0" y="0" width="50" height="50">
<rect width="50" height="50" fill="#D9D9D9"/>
</mask>
<g mask="url(#mask0_1090_4990)">
<path d="M29.5833 20.6943V17.8474C30.7292 17.3613 31.901 16.9967 33.099 16.7536C34.2969 16.5106 35.5556 16.3891 36.875 16.3891C37.7778 16.3891 38.6632 16.4585 39.5312 16.5974C40.3993 16.7363 41.25 16.9099 42.0833 17.1182V19.7568C41.25 19.4443 40.408 19.2099 39.5573 19.0536C38.7066 18.8974 37.8125 18.8193 36.875 18.8193C35.5556 18.8193 34.2882 18.9842 33.0729 19.3141C31.8576 19.6439 30.6944 20.104 29.5833 20.6943ZM29.5833 32.1526V29.2708C30.7292 28.7962 31.901 28.4403 33.099 28.2031C34.2969 27.966 35.5556 27.8474 36.875 27.8474C37.7778 27.8474 38.6632 27.9168 39.5312 28.0557C40.3993 28.1946 41.25 28.3682 42.0833 28.5766V31.2151C41.25 30.9026 40.408 30.6682 39.5573 30.512C38.7066 30.3557 37.8125 30.2776 36.875 30.2776C35.5556 30.2776 34.2882 30.4339 33.0729 30.7464C31.8576 31.0589 30.6944 31.5276 29.5833 32.1526ZM29.5833 26.4234V23.5766C30.7292 23.0905 31.901 22.7259 33.099 22.4828C34.2969 22.2398 35.5556 22.1182 36.875 22.1182C37.7778 22.1182 38.6632 22.1877 39.5312 22.3266C40.3993 22.4655 41.25 22.6391 42.0833 22.8474V25.4859C41.25 25.1734 40.408 24.9391 39.5573 24.7828C38.7066 24.6266 37.8125 24.5484 36.875 24.5484C35.5556 24.5484 34.2882 24.7134 33.0729 25.0432C31.8576 25.3731 30.6944 25.8332 29.5833 26.4234ZM13.5417 34.4443C15.3257 34.4443 17.0622 34.6498 18.751 35.0609C20.4403 35.4717 22.1066 36.088 23.75 36.9099V15.2432C22.2337 14.271 20.6003 13.5245 18.85 13.0036C17.0997 12.4828 15.3302 12.2224 13.5417 12.2224C12.2455 12.2224 10.9694 12.3727 9.71354 12.6734C8.45764 12.9745 7.21059 13.3681 5.9724 13.8542V35.7984C7.09497 35.3356 8.31302 34.9943 9.62656 34.7745C10.9405 34.5543 12.2455 34.4443 13.5417 34.4443ZM27.2224 36.9099C28.8891 36.088 30.5354 35.4717 32.1615 35.0609C33.7875 34.6498 35.4976 34.4443 37.2917 34.4443C38.5878 34.4443 39.9043 34.5484 41.2411 34.7568C42.578 34.9651 43.7845 35.2545 44.8609 35.625V13.8542C43.6922 13.2986 42.4646 12.8877 41.1781 12.6214C39.8917 12.3554 38.5962 12.2224 37.2917 12.2224C35.4976 12.2224 33.7498 12.4828 32.0484 13.0036C30.3471 13.5245 28.7384 14.271 27.2224 15.2432V36.9099ZM25.4859 42.0833C23.7498 40.7639 21.8634 39.7453 19.8266 39.0276C17.7894 38.3102 15.6944 37.9516 13.5417 37.9516C12.2097 37.9516 10.9016 38.1193 9.61719 38.4547C8.33316 38.7905 7.07188 39.2245 5.83333 39.7568C5.05556 40.1387 4.30556 40.0983 3.58333 39.6354C2.86111 39.1726 2.5 38.5071 2.5 37.6391V13.1943C2.5 12.72 2.61285 12.2802 2.83854 11.875C3.06424 11.4698 3.40278 11.1573 3.85417 10.9375C5.35868 10.1969 6.92569 9.64705 8.55521 9.28802C10.1847 8.92934 11.8469 8.75 13.5417 8.75C15.6712 8.75 17.7458 9.03351 19.7656 9.60052C21.7854 10.1679 23.6922 11.0302 25.4859 12.1875C27.2568 11.0302 29.1405 10.1679 31.137 9.60052C33.1335 9.03351 35.1851 8.75 37.2917 8.75C38.9785 8.75 40.6328 8.92934 42.2547 9.28802C43.8766 9.64705 45.4398 10.1969 46.9443 10.9375C47.3957 11.1573 47.7401 11.4698 47.9776 11.875C48.2148 12.2802 48.3333 12.72 48.3333 13.1943V37.6391C48.3333 38.5509 47.9601 39.2446 47.2135 39.7203C46.467 40.196 45.7175 40.2082 44.9651 39.7568C43.7498 39.2012 42.5002 38.7615 41.2161 38.4375C39.9318 38.1135 38.6236 37.9516 37.2917 37.9516C35.1389 37.9516 33.0672 38.3161 31.0766 39.0453C29.0856 39.7745 27.222 40.7872 25.4859 42.0833Z" fill="#C8C5C4"/>
</g>
</svg>
