<svg width="300" height="180" viewBox="0 0 300 180" fill="none" xmlns="http://www.w3.org/2000/svg">
<g clip-path="url(#clip0_232_2219)">
<rect width="300" height="180" fill="#F0EAE6"/>
<path d="M210.388 130.671L234.893 101.63C235.256 101.199 235.905 101.154 236.325 101.53L244.358 108.74C244.727 109.07 244.798 109.622 244.525 110.035L222.048 144.065C221.501 144.892 220.213 144.505 220.213 143.513V133.315C220.213 132.763 219.765 132.315 219.213 132.315H211.152C210.302 132.315 209.839 131.321 210.388 130.671Z" fill="#FF7D76"/>
<path d="M286.612 130.671L262.107 101.63C261.744 101.199 261.095 101.154 260.675 101.53L252.642 108.74C252.273 109.07 252.202 109.622 252.475 110.035L274.952 144.065C275.499 144.892 276.787 144.505 276.787 143.513V133.315C276.787 132.763 277.235 132.315 277.787 132.315H285.848C286.698 132.315 287.161 131.321 286.612 130.671Z" fill="#FF7D76"/>
<g filter="url(#filter0_d_232_2219)">
<circle cx="38" cy="28" r="28" fill="#FFEEED"/>
<path d="M41.0625 39H36.9688V20.3438H36.8438L31.5469 23.7344V20L37.1562 16.375H41.0625V39Z" fill="#FF7D76"/>
</g>
<g filter="url(#filter1_d_232_2219)">
<circle cx="-11" cy="98" r="28" fill="#FFEEED"/>
</g>
<g filter="url(#filter2_d_232_2219)">
<circle cx="99" cy="28" r="28" fill="#FFEEED"/>
<path d="M90.875 36.0469L98.8594 28.3594C99.7344 27.4844 100.411 26.7708 100.891 26.2188C101.37 25.6562 101.734 25.099 101.984 24.5469C102.234 23.9948 102.359 23.4115 102.359 22.7969C102.359 22.1198 102.188 21.5208 101.844 21C101.5 20.4792 101.036 20.0781 100.453 19.7969C99.8698 19.5052 99.2031 19.3594 98.4531 19.3594C97.7031 19.3594 97.0365 19.5156 96.4531 19.8281C95.8698 20.1302 95.4219 20.5677 95.1094 21.1406C94.7969 21.7135 94.6406 22.375 94.6406 23.125H90.7812C90.7812 21.7188 91.1094 20.4844 91.7656 19.4219C92.4219 18.349 93.3333 17.5208 94.5 16.9375C95.6771 16.3542 97.0156 16.0625 98.5156 16.0625C100.036 16.0625 101.38 16.3438 102.547 16.9062C103.714 17.4688 104.62 18.2448 105.266 19.2344C105.922 20.224 106.25 21.349 106.25 22.6094C106.25 23.4844 106.083 24.3281 105.75 25.1406C105.417 25.9531 104.844 26.849 104.031 27.8281C103.229 28.8073 102.078 30.0052 100.578 31.4219L96.5469 35.4219V35.5938H106.594V39H90.8906L90.875 36.0469Z" fill="#FF7D76"/>
</g>
<g filter="url(#filter3_d_232_2219)">
<circle cx="50" cy="98" r="28" fill="#FFEEED"/>
<path d="M53.5312 89.9219V89.7812H42.1406V86.375H57.75V89.8594L47.9375 109H43.7188L53.5312 89.9219Z" fill="#FF7D76"/>
</g>
<g filter="url(#filter4_d_232_2219)">
<circle cx="160" cy="28" r="28" fill="#FFEEED"/>
<path d="M160.094 39.3125C158.5 39.3125 157.073 39.0417 155.812 38.5C154.552 37.9583 153.562 37.1979 152.844 36.2188C152.135 35.2292 151.76 34.1094 151.719 32.8594H155.828C155.87 33.4427 156.078 33.9635 156.453 34.4219C156.828 34.8802 157.333 35.2396 157.969 35.5C158.604 35.75 159.307 35.875 160.078 35.875C160.901 35.875 161.641 35.7344 162.297 35.4531C162.964 35.1615 163.479 34.7656 163.844 34.2656C164.208 33.7552 164.385 33.1719 164.375 32.5156C164.385 31.8177 164.203 31.2083 163.828 30.6875C163.464 30.1562 162.922 29.7448 162.203 29.4531C161.495 29.151 160.656 29 159.688 29H157.672V25.8594H159.688C160.49 25.8594 161.198 25.724 161.812 25.4531C162.438 25.1719 162.917 24.7812 163.25 24.2812C163.594 23.7812 163.766 23.2083 163.766 22.5625C163.766 21.9271 163.615 21.3698 163.312 20.8906C163.021 20.401 162.599 20.026 162.047 19.7656C161.505 19.4948 160.87 19.3594 160.141 19.3594C159.432 19.3594 158.771 19.4896 158.156 19.75C157.552 20 157.062 20.3594 156.688 20.8281C156.323 21.2865 156.125 21.8333 156.094 22.4688H152.172C152.224 21.2188 152.599 20.1094 153.297 19.1406C154.005 18.1719 154.958 17.4167 156.156 16.875C157.354 16.3333 158.688 16.0625 160.156 16.0625C161.656 16.0625 162.974 16.3385 164.109 16.8906C165.255 17.4427 166.141 18.1979 166.766 19.1562C167.401 20.1042 167.708 21.1615 167.688 22.3281C167.708 23.151 167.547 23.9062 167.203 24.5938C166.859 25.2708 166.37 25.8333 165.734 26.2812C165.099 26.7292 164.37 27.0417 163.547 27.2188V27.3906C164.609 27.526 165.516 27.8385 166.266 28.3281C167.016 28.8073 167.589 29.4219 167.984 30.1719C168.38 30.9115 168.568 31.7604 168.547 32.7188C168.568 33.9583 168.208 35.0833 167.469 36.0938C166.74 37.0938 165.729 37.8802 164.438 38.4531C163.156 39.026 161.708 39.3125 160.094 39.3125Z" fill="#FF7D76"/>
</g>
<g filter="url(#filter5_d_232_2219)">
<circle cx="111" cy="98" r="28" fill="#FFEEED"/>
<path d="M111.094 109.312C109.438 109.312 107.958 109.036 106.656 108.484C105.354 107.932 104.333 107.172 103.594 106.203C102.865 105.234 102.5 104.146 102.5 102.938C102.5 102 102.708 101.125 103.125 100.312C103.552 99.5 104.135 98.8281 104.875 98.2969C105.625 97.7656 106.448 97.4323 107.344 97.2969V97.1562C106.573 96.9792 105.885 96.6562 105.281 96.1875C104.677 95.7083 104.203 95.1146 103.859 94.4062C103.526 93.6979 103.359 92.9375 103.359 92.125C103.359 90.9688 103.693 89.9323 104.359 89.0156C105.036 88.0885 105.958 87.3646 107.125 86.8438C108.302 86.3229 109.625 86.0625 111.094 86.0625C112.552 86.0625 113.87 86.3229 115.047 86.8438C116.234 87.3646 117.161 88.0885 117.828 89.0156C118.495 89.9323 118.828 90.9688 118.828 92.125C118.828 92.9375 118.656 93.6979 118.312 94.4062C117.969 95.1146 117.495 95.7083 116.891 96.1875C116.286 96.6562 115.599 96.9792 114.828 97.1562V97.2969C115.724 97.4323 116.542 97.7656 117.281 98.2969C118.021 98.8281 118.604 99.5 119.031 100.312C119.469 101.125 119.688 102 119.688 102.938C119.688 104.146 119.318 105.234 118.578 106.203C117.849 107.172 116.828 107.932 115.516 108.484C114.214 109.036 112.74 109.312 111.094 109.312ZM111.094 106.094C111.969 106.094 112.734 105.948 113.391 105.656C114.057 105.354 114.573 104.938 114.938 104.406C115.302 103.875 115.484 103.266 115.484 102.578C115.484 101.87 115.297 101.234 114.922 100.672C114.547 100.099 114.021 99.6562 113.344 99.3438C112.677 99.0208 111.927 98.8594 111.094 98.8594C110.26 98.8594 109.505 99.0208 108.828 99.3438C108.151 99.6562 107.625 100.099 107.25 100.672C106.875 101.234 106.693 101.87 106.703 102.578C106.693 103.266 106.87 103.875 107.234 104.406C107.599 104.938 108.115 105.354 108.781 105.656C109.448 105.948 110.219 106.094 111.094 106.094ZM111.094 95.8438C111.812 95.8438 112.458 95.7031 113.031 95.4219C113.604 95.1302 114.052 94.7344 114.375 94.2344C114.698 93.7344 114.859 93.1615 114.859 92.5156C114.859 91.8802 114.698 91.3125 114.375 90.8125C114.062 90.3125 113.62 89.9271 113.047 89.6562C112.474 89.3854 111.823 89.25 111.094 89.25C110.354 89.25 109.698 89.3854 109.125 89.6562C108.552 89.9271 108.109 90.3125 107.797 90.8125C107.484 91.3125 107.328 91.8802 107.328 92.5156C107.328 93.1615 107.49 93.7344 107.812 94.2344C108.135 94.7344 108.578 95.1302 109.141 95.4219C109.714 95.7031 110.365 95.8438 111.094 95.8438Z" fill="#FF7D76"/>
</g>
<g filter="url(#filter6_d_232_2219)">
<circle cx="221" cy="28" r="28" fill="#FFEEED"/>
<path d="M212.453 31.5469L222.234 16.375H224.922V21H223.25L216.625 31.2656V31.4531H230.281V34.7812H212.453V31.5469ZM223.438 33.8125L223.484 32.3438V16.375H227.328V39H223.438V33.8125Z" fill="#FF7D76"/>
</g>
<g filter="url(#filter7_d_232_2219)">
<circle cx="172" cy="98" r="28" fill="#FFEEED"/>
<path d="M171.922 86.0625C173.526 86.0625 174.984 86.4167 176.297 87.125C177.62 87.8333 178.688 89 179.5 90.625C180.323 92.25 180.734 94.375 180.734 97C180.745 99.5625 180.38 101.771 179.641 103.625C178.911 105.469 177.859 106.88 176.484 107.859C175.12 108.828 173.516 109.312 171.672 109.312C170.255 109.312 168.979 109.036 167.844 108.484C166.708 107.922 165.792 107.156 165.094 106.188C164.396 105.208 163.964 104.099 163.797 102.859H167.797C167.943 103.453 168.188 103.969 168.531 104.406C168.885 104.844 169.328 105.182 169.859 105.422C170.391 105.661 170.995 105.781 171.672 105.781C172.755 105.781 173.677 105.474 174.438 104.859C175.208 104.245 175.792 103.359 176.188 102.203C176.594 101.036 176.797 99.651 176.797 98.0469H176.562C176.177 98.6823 175.693 99.2344 175.109 99.7031C174.526 100.172 173.859 100.531 173.109 100.781C172.37 101.031 171.589 101.156 170.766 101.156C169.432 101.156 168.219 100.844 167.125 100.219C166.031 99.5833 165.167 98.7083 164.531 97.5938C163.896 96.4688 163.578 95.2135 163.578 93.8281C163.578 92.349 163.922 91.0208 164.609 89.8438C165.307 88.6562 166.286 87.7292 167.547 87.0625C168.818 86.3854 170.276 86.0521 171.922 86.0625ZM171.922 89.3438C171.109 89.3438 170.365 89.5417 169.688 89.9375C169.021 90.3229 168.495 90.849 168.109 91.5156C167.724 92.1823 167.531 92.9167 167.531 93.7188C167.542 94.5208 167.734 95.2552 168.109 95.9219C168.484 96.5781 169 97.099 169.656 97.4844C170.312 97.8698 171.052 98.0625 171.875 98.0625C172.698 98.0625 173.448 97.8594 174.125 97.4531C174.802 97.0469 175.339 96.5104 175.734 95.8438C176.141 95.1667 176.339 94.4479 176.328 93.6875C176.328 92.9062 176.135 92.1875 175.75 91.5312C175.365 90.8646 174.839 90.3333 174.172 89.9375C173.516 89.5417 172.766 89.3438 171.922 89.3438Z" fill="#FF7D76"/>
</g>
<g filter="url(#filter8_d_232_2219)">
<circle cx="282" cy="28" r="28" fill="#FFEEED"/>
<path d="M281.906 39.3125C280.427 39.3125 279.083 39.0365 277.875 38.4844C276.677 37.9219 275.734 37.151 275.047 36.1719C274.359 35.1927 273.99 34.0885 273.938 32.8594H277.891C277.953 33.4635 278.167 34.0052 278.531 34.4844C278.896 34.9635 279.375 35.3385 279.969 35.6094C280.562 35.8802 281.208 36.0156 281.906 36.0156C282.74 36.0156 283.484 35.8281 284.141 35.4531C284.797 35.0781 285.312 34.5625 285.688 33.9062C286.062 33.25 286.25 32.5052 286.25 31.6719C286.25 30.8177 286.057 30.0573 285.672 29.3906C285.297 28.724 284.771 28.2031 284.094 27.8281C283.417 27.4427 282.646 27.25 281.781 27.25C280.885 27.2396 280.125 27.3906 279.5 27.7031C278.875 28.0156 278.385 28.5104 278.031 29.1875H274.266L275.625 16.375H288.984V19.7812H278.984L278.297 25.7969H278.484C278.943 25.2865 279.562 24.8698 280.344 24.5469C281.135 24.224 281.984 24.0625 282.891 24.0625C284.276 24.0625 285.526 24.3854 286.641 25.0312C287.755 25.6667 288.625 26.5573 289.25 27.7031C289.885 28.8385 290.203 30.125 290.203 31.5625C290.203 33.0521 289.849 34.3854 289.141 35.5625C288.432 36.7396 287.448 37.6615 286.188 38.3281C284.938 38.9844 283.51 39.3125 281.906 39.3125Z" fill="#FF7D76"/>
</g>
<mask id="mask0_232_2219" style="mask-type:alpha" maskUnits="userSpaceOnUse" x="209" y="62" width="77" height="77">
<rect x="209.695" y="62.9995" width="75.9474" height="75.9474" fill="#D9D9D9"/>
</mask>
<g mask="url(#mask0_232_2219)">
<g filter="url(#filter9_d_232_2219)">
<path d="M247.669 129.455L243.08 125.341C237.753 120.542 233.349 116.401 229.869 112.92C226.388 109.44 223.619 106.315 221.562 103.546C219.505 100.777 218.068 98.232 217.25 95.9114C216.433 93.5908 216.024 91.2174 216.024 88.7913C216.024 83.8337 217.685 79.6935 221.008 76.3708C224.331 73.0481 228.471 71.3867 233.429 71.3867C236.171 71.3867 238.782 71.9669 241.261 73.1272C243.739 74.2875 245.875 75.9225 247.669 78.0321C249.462 75.9225 251.598 74.2875 254.077 73.1272C256.556 71.9669 259.166 71.3867 261.909 71.3867C266.866 71.3867 271.007 73.0481 274.329 76.3708C277.652 79.6935 279.313 83.8337 279.313 88.7913C279.313 91.2174 278.905 93.5908 278.087 95.9114C277.27 98.232 275.832 100.777 273.776 103.546C271.719 106.315 268.95 109.44 265.469 112.92C261.988 116.401 257.584 120.542 252.257 125.341L247.669 129.455Z" fill="#FF7D76"/>
<path d="M261.909 69.8867C267.24 69.8867 271.769 71.6898 275.39 75.3105C279.011 78.9312 280.813 83.4601 280.813 88.791C280.813 91.3893 280.376 93.9317 279.502 96.4102C278.619 98.9168 277.093 101.595 274.98 104.44C272.865 107.287 270.043 110.469 266.53 113.981C263.024 117.487 258.599 121.645 253.261 126.455L253.258 126.458L248.67 130.571L247.668 131.47L246.667 130.571L242.079 126.458L242.076 126.455C236.738 121.646 232.313 117.487 228.808 113.981C225.295 110.469 222.473 107.287 220.358 104.44C218.244 101.595 216.719 98.9167 215.835 96.4102C214.962 93.9317 214.524 91.3893 214.524 88.791C214.524 83.46 216.327 78.9312 219.948 75.3105C223.568 71.6899 228.097 69.8868 233.428 69.8867C236.39 69.8867 239.219 70.5149 241.897 71.7686C244.064 72.7827 245.989 74.1348 247.668 75.8184C249.348 74.1346 251.274 72.7828 253.441 71.7686C256.119 70.5149 258.947 69.8867 261.909 69.8867Z" stroke="#FFC3B8" stroke-width="3"/>
</g>
</g>
<path d="M241.312 108.921H237.219V90.2646H237.094L231.797 93.6553V89.9209L237.406 86.2959H241.312V108.921ZM254.516 109.233C252.704 109.233 251.146 108.78 249.844 107.874C248.553 106.968 247.558 105.645 246.86 103.905C246.172 102.155 245.829 100.056 245.829 97.6084C245.829 95.1605 246.172 93.0667 246.86 91.3271C247.558 89.5876 248.558 88.2646 249.86 87.3584C251.162 86.4417 252.714 85.9834 254.516 85.9834C256.318 85.9834 257.87 86.4417 259.172 87.3584C260.485 88.2646 261.485 89.5928 262.172 91.3428C262.86 93.0824 263.204 95.1709 263.204 97.6084C263.204 100.067 262.86 102.166 262.172 103.905C261.495 105.645 260.501 106.968 259.188 107.874C257.886 108.78 256.329 109.233 254.516 109.233ZM254.516 105.812C255.464 105.812 256.282 105.504 256.969 104.89C257.657 104.265 258.183 103.343 258.547 102.124C258.922 100.895 259.105 99.3896 259.094 97.6084C259.094 95.8376 258.907 94.3376 258.532 93.1084C258.167 91.8688 257.641 90.9365 256.954 90.3115C256.277 89.6761 255.464 89.3584 254.516 89.3584C253.568 89.3584 252.751 89.6761 252.063 90.3115C251.386 90.9365 250.86 91.8688 250.485 93.1084C250.11 94.3376 249.922 95.8376 249.922 97.6084C249.922 99.3896 250.105 100.895 250.469 102.124C250.844 103.343 251.376 104.265 252.063 104.89C252.751 105.504 253.568 105.812 254.516 105.812Z" fill="#FEFCFB"/>
</g>
<defs>
<filter id="filter0_d_232_2219" x="6" y="0" width="64" height="64" filterUnits="userSpaceOnUse" color-interpolation-filters="sRGB">
<feFlood flood-opacity="0" result="BackgroundImageFix"/>
<feColorMatrix in="SourceAlpha" type="matrix" values="0 0 0 0 0 0 0 0 0 0 0 0 0 0 0 0 0 0 127 0" result="hardAlpha"/>
<feOffset dy="4"/>
<feGaussianBlur stdDeviation="2"/>
<feComposite in2="hardAlpha" operator="out"/>
<feColorMatrix type="matrix" values="0 0 0 0 1 0 0 0 0 0.452355 0 0 0 0 0.452355 0 0 0 0.25 0"/>
<feBlend mode="normal" in2="BackgroundImageFix" result="effect1_dropShadow_232_2219"/>
<feBlend mode="normal" in="SourceGraphic" in2="effect1_dropShadow_232_2219" result="shape"/>
</filter>
<filter id="filter1_d_232_2219" x="-43" y="70" width="64" height="64" filterUnits="userSpaceOnUse" color-interpolation-filters="sRGB">
<feFlood flood-opacity="0" result="BackgroundImageFix"/>
<feColorMatrix in="SourceAlpha" type="matrix" values="0 0 0 0 0 0 0 0 0 0 0 0 0 0 0 0 0 0 127 0" result="hardAlpha"/>
<feOffset dy="4"/>
<feGaussianBlur stdDeviation="2"/>
<feComposite in2="hardAlpha" operator="out"/>
<feColorMatrix type="matrix" values="0 0 0 0 1 0 0 0 0 0.452355 0 0 0 0 0.452355 0 0 0 0.25 0"/>
<feBlend mode="normal" in2="BackgroundImageFix" result="effect1_dropShadow_232_2219"/>
<feBlend mode="normal" in="SourceGraphic" in2="effect1_dropShadow_232_2219" result="shape"/>
</filter>
<filter id="filter2_d_232_2219" x="67" y="0" width="64" height="64" filterUnits="userSpaceOnUse" color-interpolation-filters="sRGB">
<feFlood flood-opacity="0" result="BackgroundImageFix"/>
<feColorMatrix in="SourceAlpha" type="matrix" values="0 0 0 0 0 0 0 0 0 0 0 0 0 0 0 0 0 0 127 0" result="hardAlpha"/>
<feOffset dy="4"/>
<feGaussianBlur stdDeviation="2"/>
<feComposite in2="hardAlpha" operator="out"/>
<feColorMatrix type="matrix" values="0 0 0 0 1 0 0 0 0 0.452355 0 0 0 0 0.452355 0 0 0 0.25 0"/>
<feBlend mode="normal" in2="BackgroundImageFix" result="effect1_dropShadow_232_2219"/>
<feBlend mode="normal" in="SourceGraphic" in2="effect1_dropShadow_232_2219" result="shape"/>
</filter>
<filter id="filter3_d_232_2219" x="18" y="70" width="64" height="64" filterUnits="userSpaceOnUse" color-interpolation-filters="sRGB">
<feFlood flood-opacity="0" result="BackgroundImageFix"/>
<feColorMatrix in="SourceAlpha" type="matrix" values="0 0 0 0 0 0 0 0 0 0 0 0 0 0 0 0 0 0 127 0" result="hardAlpha"/>
<feOffset dy="4"/>
<feGaussianBlur stdDeviation="2"/>
<feComposite in2="hardAlpha" operator="out"/>
<feColorMatrix type="matrix" values="0 0 0 0 1 0 0 0 0 0.452355 0 0 0 0 0.452355 0 0 0 0.25 0"/>
<feBlend mode="normal" in2="BackgroundImageFix" result="effect1_dropShadow_232_2219"/>
<feBlend mode="normal" in="SourceGraphic" in2="effect1_dropShadow_232_2219" result="shape"/>
</filter>
<filter id="filter4_d_232_2219" x="128" y="0" width="64" height="64" filterUnits="userSpaceOnUse" color-interpolation-filters="sRGB">
<feFlood flood-opacity="0" result="BackgroundImageFix"/>
<feColorMatrix in="SourceAlpha" type="matrix" values="0 0 0 0 0 0 0 0 0 0 0 0 0 0 0 0 0 0 127 0" result="hardAlpha"/>
<feOffset dy="4"/>
<feGaussianBlur stdDeviation="2"/>
<feComposite in2="hardAlpha" operator="out"/>
<feColorMatrix type="matrix" values="0 0 0 0 1 0 0 0 0 0.452355 0 0 0 0 0.452355 0 0 0 0.25 0"/>
<feBlend mode="normal" in2="BackgroundImageFix" result="effect1_dropShadow_232_2219"/>
<feBlend mode="normal" in="SourceGraphic" in2="effect1_dropShadow_232_2219" result="shape"/>
</filter>
<filter id="filter5_d_232_2219" x="79" y="70" width="64" height="64" filterUnits="userSpaceOnUse" color-interpolation-filters="sRGB">
<feFlood flood-opacity="0" result="BackgroundImageFix"/>
<feColorMatrix in="SourceAlpha" type="matrix" values="0 0 0 0 0 0 0 0 0 0 0 0 0 0 0 0 0 0 127 0" result="hardAlpha"/>
<feOffset dy="4"/>
<feGaussianBlur stdDeviation="2"/>
<feComposite in2="hardAlpha" operator="out"/>
<feColorMatrix type="matrix" values="0 0 0 0 1 0 0 0 0 0.452355 0 0 0 0 0.452355 0 0 0 0.25 0"/>
<feBlend mode="normal" in2="BackgroundImageFix" result="effect1_dropShadow_232_2219"/>
<feBlend mode="normal" in="SourceGraphic" in2="effect1_dropShadow_232_2219" result="shape"/>
</filter>
<filter id="filter6_d_232_2219" x="189" y="0" width="64" height="64" filterUnits="userSpaceOnUse" color-interpolation-filters="sRGB">
<feFlood flood-opacity="0" result="BackgroundImageFix"/>
<feColorMatrix in="SourceAlpha" type="matrix" values="0 0 0 0 0 0 0 0 0 0 0 0 0 0 0 0 0 0 127 0" result="hardAlpha"/>
<feOffset dy="4"/>
<feGaussianBlur stdDeviation="2"/>
<feComposite in2="hardAlpha" operator="out"/>
<feColorMatrix type="matrix" values="0 0 0 0 1 0 0 0 0 0.452355 0 0 0 0 0.452355 0 0 0 0.25 0"/>
<feBlend mode="normal" in2="BackgroundImageFix" result="effect1_dropShadow_232_2219"/>
<feBlend mode="normal" in="SourceGraphic" in2="effect1_dropShadow_232_2219" result="shape"/>
</filter>
<filter id="filter7_d_232_2219" x="140" y="70" width="64" height="64" filterUnits="userSpaceOnUse" color-interpolation-filters="sRGB">
<feFlood flood-opacity="0" result="BackgroundImageFix"/>
<feColorMatrix in="SourceAlpha" type="matrix" values="0 0 0 0 0 0 0 0 0 0 0 0 0 0 0 0 0 0 127 0" result="hardAlpha"/>
<feOffset dy="4"/>
<feGaussianBlur stdDeviation="2"/>
<feComposite in2="hardAlpha" operator="out"/>
<feColorMatrix type="matrix" values="0 0 0 0 1 0 0 0 0 0.452355 0 0 0 0 0.452355 0 0 0 0.25 0"/>
<feBlend mode="normal" in2="BackgroundImageFix" result="effect1_dropShadow_232_2219"/>
<feBlend mode="normal" in="SourceGraphic" in2="effect1_dropShadow_232_2219" result="shape"/>
</filter>
<filter id="filter8_d_232_2219" x="250" y="0" width="64" height="64" filterUnits="userSpaceOnUse" color-interpolation-filters="sRGB">
<feFlood flood-opacity="0" result="BackgroundImageFix"/>
<feColorMatrix in="SourceAlpha" type="matrix" values="0 0 0 0 0 0 0 0 0 0 0 0 0 0 0 0 0 0 127 0" result="hardAlpha"/>
<feOffset dy="4"/>
<feGaussianBlur stdDeviation="2"/>
<feComposite in2="hardAlpha" operator="out"/>
<feColorMatrix type="matrix" values="0 0 0 0 1 0 0 0 0 0.452355 0 0 0 0 0.452355 0 0 0 0.25 0"/>
<feBlend mode="normal" in2="BackgroundImageFix" result="effect1_dropShadow_232_2219"/>
<feBlend mode="normal" in="SourceGraphic" in2="effect1_dropShadow_232_2219" result="shape"/>
</filter>
<filter id="filter9_d_232_2219" x="209.024" y="68.3867" width="77.2896" height="73.0972" filterUnits="userSpaceOnUse" color-interpolation-filters="sRGB">
<feFlood flood-opacity="0" result="BackgroundImageFix"/>
<feColorMatrix in="SourceAlpha" type="matrix" values="0 0 0 0 0 0 0 0 0 0 0 0 0 0 0 0 0 0 127 0" result="hardAlpha"/>
<feOffset dy="4"/>
<feGaussianBlur stdDeviation="2"/>
<feComposite in2="hardAlpha" operator="out"/>
<feColorMatrix type="matrix" values="0 0 0 0 1 0 0 0 0 1 0 0 0 0 1 0 0 0 0.25 0"/>
<feBlend mode="normal" in2="BackgroundImageFix" result="effect1_dropShadow_232_2219"/>
<feBlend mode="normal" in="SourceGraphic" in2="effect1_dropShadow_232_2219" result="shape"/>
</filter>
<clipPath id="clip0_232_2219">
<rect width="300" height="180" fill="white"/>
</clipPath>
</defs>
</svg>
