<svg width="300" height="180" viewBox="0 0 300 180" fill="none" xmlns="http://www.w3.org/2000/svg">
<g clip-path="url(#clip0_232_2161)">
<rect width="300" height="180" fill="#F0EAE6"/>
<path d="M268 150.051C270.8 150.851 289.833 161.718 299 167.051L307.5 183.051H140C146.4 175.051 163.667 166.051 171.5 162.551C202.5 158.051 265.2 149.251 268 150.051Z" fill="#FFAB9B" stroke="#FF9691" stroke-width="3"/>
<path d="M259 139.5C253 129.5 252.5 98.6667 253 84.5L187.5 130.5C189.9 143.3 188.5 158.167 187.5 164L219 178L273.5 156.5C271.167 155 265 149.5 259 139.5Z" fill="#FFEEED" stroke="#FFC3B8" stroke-width="3"/>
<path d="M175.754 127C134.154 114.2 131.421 47 135.254 15C135.964 7 139.55 -4.33333 141.254 -9H267.754V20.5C273.087 18.6667 283.154 20.2 280.754 41C278.354 61.8 268.421 65.6667 263.754 65C251.754 91 217.354 139.8 175.754 127Z" fill="#FFEEED" stroke="#FFC3B8" stroke-width="3" stroke-linecap="round"/>
<path d="M181.781 35.4896C181.454 40.0706 178.419 41.3133 174.803 41.0557C171.186 40.7982 168.358 39.1379 168.684 34.5569C169.01 29.9759 172.952 24.2504 176.569 24.508C180.185 24.7655 182.107 30.9085 181.781 35.4896Z" fill="#FF7D76"/>
<path d="M230.781 38.4896C230.454 43.0706 227.419 44.3133 223.803 44.0557C220.186 43.7982 217.358 42.1379 217.684 37.5569C218.01 32.9759 221.952 27.2504 225.569 27.508C229.185 27.7655 231.107 33.9085 230.781 38.4896Z" fill="#FF7D76"/>
<path d="M168.254 88C172.774 97.8101 189.101 111.544 218.254 88" stroke="#FF7D76" stroke-width="3" stroke-linecap="round"/>
<path d="M184.754 50.5C180.754 52.5 173.254 57.9 175.254 63.5" stroke="#FFC3B8" stroke-width="3" stroke-linecap="round"/>
<path d="M219.315 0C210.915 13.6 160.5 23.1667 133.5 23.5C119.5 19.1 133.649 -11.8333 145.315 -24H266.315C267.482 -21.6667 271.015 -14.5 275.815 -4.5C280.615 5.5 271.482 18.3333 266.315 23.5L238.815 -12L219.315 0Z" fill="#FFC3B8"/>
<path d="M211.834 170.024C218.334 167.524 249.334 154.024 256.834 148.524C258.667 147.19 262.634 144.424 263.834 144.024C265.334 143.524 277.334 151.024 278.834 156.024C280.834 161.024 266.334 164.024 248.334 177.524C233.934 188.324 227.334 190.024 225.834 189.524C219.334 185.357 206.634 172.024 211.834 170.024Z" fill="#FFAB9B"/>
<path d="M189.334 150.524C190.534 155.482 203.501 165.59 209.834 170.024C209.834 173.524 206.334 177.524 198.334 186.524C190.334 195.524 175.334 187.024 170.834 177.524C166.334 168.024 167.334 166.524 172.834 162.524C178.334 158.524 187.834 144.326 189.334 150.524Z" fill="#FFAB9B"/>
<path d="M211.834 170.024C218.334 167.524 249.334 154.024 256.834 148.524C258.667 147.19 262.634 144.424 263.834 144.024C265.334 143.524 277.334 151.024 278.834 156.024C280.834 161.024 266.334 164.024 248.334 177.524C233.934 188.324 227.334 190.024 225.834 189.524C219.334 185.357 206.634 172.024 211.834 170.024Z" stroke="#FF9691" stroke-width="3"/>
<path d="M189.334 150.524C190.534 155.482 203.501 165.59 209.834 170.024C209.834 173.524 206.334 177.524 198.334 186.524C190.334 195.524 175.334 187.024 170.834 177.524C166.334 168.024 167.334 166.524 172.834 162.524C178.334 158.524 187.834 144.326 189.334 150.524Z" stroke="#FF9691" stroke-width="3"/>
<path d="M105.93 106.079L103.466 102.494L78.677 117.328L82.7834 123.304L105.93 106.079Z" fill="#FFC3B8"/>
<path d="M95.3147 75.0171L94.3732 70.7697L56.8561 77.2292L58.4252 84.3081L95.3147 75.0171Z" fill="#FFC3B8"/>
<path d="M93.7521 44.9239L94.3407 40.6134L51.9813 32.9999L51.0003 40.184L93.7521 44.9239Z" fill="#FFC3B8"/>
<path d="M98.4803 19.9841L100.555 16.1602L63.6239 -5.93908L60.1661 0.434089L98.4803 19.9841Z" fill="#FFC3B8"/>
<rect x="96.5" y="14.5" width="147" height="147" rx="16.5" stroke="#C8C5C4" stroke-width="7" stroke-dasharray="56 56"/>
</g>
<defs>
<clipPath id="clip0_232_2161">
<rect width="300" height="180" fill="white"/>
</clipPath>
</defs>
</svg>
