<svg width="300" height="180" viewBox="0 0 300 180" fill="none" xmlns="http://www.w3.org/2000/svg">
<g clip-path="url(#clip0_232_2221)">
<rect width="300" height="180" fill="#F0EAE6"/>
<circle cx="274.5" cy="90.4056" r="21.5" transform="rotate(45 274.5 90.4056)" fill="#FFEEED"/>
<path d="M280.293 81.4864L283.68 84.8733L268.707 99.8462L265.32 96.4593L280.293 81.4864ZM268.707 81.4864L283.695 96.4746L280.324 99.8462L265.335 84.8579L268.707 81.4864Z" fill="#FFC3B8"/>
<circle cx="221.5" cy="90.4053" r="21.5" fill="#FFEEED"/>
<path d="M219.289 80.002H224.079V101.177H219.289V80.002ZM211.097 88.1945H232.293V92.9626H211.097V88.1945Z" fill="#FFC3B8"/>
<circle cx="79.5" cy="90.4056" r="21.5" transform="rotate(45 79.5 90.4056)" fill="#FFEEED"/>
<path d="M85.293 81.4864L88.6799 84.8733L73.707 99.8462L70.3201 96.4593L85.293 81.4864ZM73.707 81.4864L88.6952 96.4746L85.3237 99.8462L70.3354 84.8579L73.707 81.4864Z" fill="#FFC3B8"/>
<g clip-path="url(#clip1_232_2221)">
<rect x="96" y="29" width="108" height="169" rx="17" fill="#FFEEED"/>
<mask id="mask0_232_2221" style="mask-type:alpha" maskUnits="userSpaceOnUse" x="96" y="29" width="109" height="109">
<rect x="96" y="29" width="109" height="109" fill="#FF7D76"/>
</mask>
<g mask="url(#mask0_232_2221)">
<path d="M112.769 64.7294V45.769H131.729V53.3532H120.353V64.7294H112.769ZM112.769 121.61V102.65H120.353V114.026H131.729V121.61H112.769ZM169.65 121.61V114.026H181.026V102.65H188.61V121.61H169.65ZM181.026 64.7294V53.3532H169.65V45.769H188.61V64.7294H181.026ZM171.546 104.546H177.234V110.234H171.546V104.546ZM171.546 93.1699H177.234V98.858H171.546V93.1699ZM165.858 98.858H171.546V104.546H165.858V98.858ZM160.17 104.546H165.858V110.234H160.17V104.546ZM154.482 98.858H160.17V104.546H154.482V98.858ZM165.858 87.4818H171.546V93.1699H165.858V87.4818ZM160.17 93.1699H165.858V98.858H160.17V93.1699ZM154.482 87.4818H160.17V93.1699H154.482V87.4818ZM177.234 57.1453V79.8977H154.482V57.1453H177.234ZM146.898 87.4818V110.234H124.145V87.4818H146.898ZM146.898 57.1453V79.8977H124.145V57.1453H146.898ZM141.21 104.546V93.1699H129.833V104.546H141.21ZM141.21 74.2096V62.8334H129.833V74.2096H141.21ZM171.546 74.2096V62.8334H160.17V74.2096H171.546Z" fill="#FF7D76"/>
</g>
</g>
<rect x="93.5" y="26.5" width="113" height="174" rx="19.5" stroke="#FF7D76" stroke-width="5"/>
<circle cx="26.5" cy="90.4053" r="21.5" fill="#FFEEED"/>
<path d="M24.2892 80.002H29.079V101.177H24.2892V80.002ZM16.0967 88.1945H37.2933V92.9626H16.0967V88.1945Z" fill="#FFC3B8"/>
<rect x="76.5" y="13.5" width="147" height="147" rx="16.5" stroke="#C8C5C4" stroke-width="7" stroke-dasharray="56 56"/>
</g>
<defs>
<clipPath id="clip0_232_2221">
<rect width="300" height="180" fill="white"/>
</clipPath>
<clipPath id="clip1_232_2221">
<rect x="96" y="29" width="108" height="169" rx="17" fill="white"/>
</clipPath>
</defs>
</svg>
